<?xml version="1.0" standalone="no"?>
<!DOCTYPE svg PUBLIC "-//W3C//DTD SVG 20010904//EN"
 "http://www.w3.org/TR/2001/REC-SVG-20010904/DTD/svg10.dtd">
<svg version="1.0" xmlns="http://www.w3.org/2000/svg"
 width="294.000000pt" height="294.000000pt" viewBox="0 0 294.000000 294.000000"
 preserveAspectRatio="xMidYMid meet">
<metadata>
Created by potrace 1.11, written by Peter Selinger 2001-2013
</metadata>
<g transform="translate(0.000000,294.000000) scale(0.100000,-0.100000)"
fill="#000000" stroke="none">
<path d="M1400 1888 c-36 -39 -66 -74 -68 -78 -3 -8 125 -193 137 -198 8 -3
141 180 141 193 0 8 -133 155 -140 154 -3 0 -34 -32 -70 -71z"/>
<path d="M1126 1704 c-82 -46 -151 -84 -153 -84 -2 0 -20 -11 -41 -24 -20 -13
-145 -84 -277 -159 -132 -74 -263 -148 -290 -164 -28 -15 -101 -57 -163 -92
-62 -35 -112 -65 -110 -66 2 -2 80 23 173 55 540 185 753 259 780 269 17 7 30
12 30 11 0 -2 20 5 88 29 32 12 62 21 66 21 5 0 41 -25 81 -56 49 -39 68 -60
61 -67 -7 -7 -27 2 -63 30 -29 21 -58 42 -65 46 -6 4 -132 -34 -280 -83 -147
-50 -386 -130 -530 -178 -144 -48 -263 -90 -263 -93 0 -3 73 17 163 44 89 27
243 73 342 103 99 29 200 60 225 68 25 8 86 26 135 41 50 15 109 33 133 41 57
19 55 19 117 -22 l55 -37 -37 -51 c-20 -28 -68 -93 -106 -145 -38 -51 -65 -91
-60 -88 4 3 71 55 148 116 103 81 142 107 152 100 9 -8 1 -19 -35 -47 -26 -19
-78 -60 -117 -91 -38 -30 -72 -57 -74 -58 -2 -2 -2 -5 1 -8 3 -3 34 17 69 43
35 27 92 68 127 91 63 42 63 43 89 24 14 -10 36 -25 49 -33 12 -8 67 -48 123
-87 55 -40 103 -73 106 -73 4 0 -49 44 -117 97 -67 53 -129 103 -136 110 -7 7
-18 13 -23 13 -6 0 -7 5 -4 10 11 17 32 11 73 -22 22 -18 69 -55 104 -82 34
-27 78 -63 96 -80 17 -16 32 -26 31 -20 0 5 -44 70 -98 144 l-99 134 51 38
c28 21 55 38 60 38 11 0 195 -53 347 -100 96 -30 142 -44 350 -106 63 -19 159
-48 213 -65 54 -17 101 -29 103 -27 2 3 -53 24 -124 48 -70 23 -298 101 -508
171 -209 71 -385 129 -390 129 -5 0 -32 -20 -61 -45 -28 -25 -56 -45 -62 -45
-27 0 -6 31 55 79 l66 53 42 -13 c22 -7 46 -14 51 -15 6 -1 69 -23 140 -49 72
-25 168 -59 215 -74 47 -16 191 -65 320 -110 129 -45 264 -91 300 -103 36 -11
71 -25 79 -32 11 -8 13 -8 7 1 -4 7 -26 24 -49 37 -197 111 -431 244 -472 267
-27 15 -189 106 -359 203 l-309 175 -57 -77 c-30 -42 -73 -103 -95 -134 -46
-65 -46 -65 -108 27 -23 33 -45 65 -49 70 -5 6 -26 33 -46 62 l-38 51 -148
-84z m368 -403 c8 -12 -20 -22 -40 -14 -13 5 -13 7 -2 14 17 11 35 11 42 0z"/>
<path d="M2750 1100 c20 -13 33 -13 25 0 -3 6 -14 10 -23 10 -15 0 -15 -2 -2
-10z"/>
<path d="M130 1090 c-8 -5 -10 -10 -5 -10 6 0 17 5 25 10 8 5 11 10 5 10 -5 0
-17 -5 -25 -10z"/>
<path d="M1163 1034 l-28 -25 33 22 c17 13 32 24 32 26 0 8 -11 1 -37 -23z"/>
</g>
</svg>
